<mxfile host="Electron" agent="Mozilla/5.0 (Windows NT 10.0; Win64; x64) AppleWebKit/537.36 (KHTML, like Gecko) draw.io/24.7.17 Chrome/128.0.6613.36 Electron/32.0.1 Safari/537.36" version="24.7.17">
  <diagram name="Page-1" id="ju3gr-931GrrgvIgrY2f">
    <mxGraphModel dx="1877" dy="621" grid="1" gridSize="10" guides="1" tooltips="1" connect="1" arrows="1" fold="1" page="1" pageScale="1" pageWidth="827" pageHeight="1169" math="0" shadow="0">
      <root>
        <mxCell id="0" />
        <mxCell id="1" parent="0" />
        <mxCell id="7IWxB56YQUU6eFQI7mrQ-1" value="&lt;b&gt;&lt;font style=&quot;font-size: 24px;&quot;&gt;&lt;span style=&quot;white-space: pre;&quot;&gt;&#x9;&lt;/span&gt;DVoice Revision Workflow&amp;nbsp;&lt;/font&gt;&lt;/b&gt;" style="rounded=0;whiteSpace=wrap;html=1;" vertex="1" parent="1">
          <mxGeometry x="-130" width="1260" height="60" as="geometry" />
        </mxCell>
        <mxCell id="7IWxB56YQUU6eFQI7mrQ-2" value="" style="rounded=0;whiteSpace=wrap;html=1;fillColor=#f5f5f5;fontColor=#333333;strokeColor=#666666;" vertex="1" parent="1">
          <mxGeometry x="-130" y="60" width="1260" height="2040" as="geometry" />
        </mxCell>
        <mxCell id="7IWxB56YQUU6eFQI7mrQ-3" value="" style="strokeWidth=2;html=1;shape=mxgraph.flowchart.start_2;whiteSpace=wrap;" vertex="1" parent="1">
          <mxGeometry x="470" y="80" width="90" height="80" as="geometry" />
        </mxCell>
        <mxCell id="7IWxB56YQUU6eFQI7mrQ-4" value="Update Thread Flag - In Progress" style="rounded=1;whiteSpace=wrap;html=1;" vertex="1" parent="1">
          <mxGeometry x="147.5" y="180" width="740" height="20" as="geometry" />
        </mxCell>
        <mxCell id="7IWxB56YQUU6eFQI7mrQ-5" value="Additional Instructions Provided?&amp;nbsp;" style="strokeWidth=2;html=1;shape=mxgraph.flowchart.decision;whiteSpace=wrap;" vertex="1" parent="1">
          <mxGeometry x="440" y="220" width="140" height="130" as="geometry" />
        </mxCell>
        <mxCell id="7IWxB56YQUU6eFQI7mrQ-6" value="" style="edgeStyle=segmentEdgeStyle;endArrow=classic;html=1;curved=0;rounded=0;endSize=8;startSize=8;exitX=0;exitY=0.5;exitDx=0;exitDy=0;exitPerimeter=0;entryX=0.5;entryY=0;entryDx=0;entryDy=0;" edge="1" parent="1" source="7IWxB56YQUU6eFQI7mrQ-5" target="7IWxB56YQUU6eFQI7mrQ-10">
          <mxGeometry width="50" height="50" relative="1" as="geometry">
            <mxPoint x="430" y="280" as="sourcePoint" />
            <mxPoint x="250" y="325" as="targetPoint" />
            <Array as="points" />
          </mxGeometry>
        </mxCell>
        <mxCell id="7IWxB56YQUU6eFQI7mrQ-7" value="Yes" style="edgeLabel;html=1;align=center;verticalAlign=middle;resizable=0;points=[];" vertex="1" connectable="0" parent="7IWxB56YQUU6eFQI7mrQ-6">
          <mxGeometry x="-0.2444" y="-1" relative="1" as="geometry">
            <mxPoint as="offset" />
          </mxGeometry>
        </mxCell>
        <mxCell id="7IWxB56YQUU6eFQI7mrQ-8" value="" style="edgeStyle=segmentEdgeStyle;endArrow=classic;html=1;curved=0;rounded=0;endSize=8;startSize=8;exitX=1;exitY=0.5;exitDx=0;exitDy=0;exitPerimeter=0;entryX=0.5;entryY=0;entryDx=0;entryDy=0;entryPerimeter=0;" edge="1" parent="1" source="7IWxB56YQUU6eFQI7mrQ-5" target="7IWxB56YQUU6eFQI7mrQ-12">
          <mxGeometry width="50" height="50" relative="1" as="geometry">
            <mxPoint x="590" y="280" as="sourcePoint" />
            <mxPoint x="760" y="330" as="targetPoint" />
            <Array as="points">
              <mxPoint x="760" y="285" />
              <mxPoint x="760" y="490" />
            </Array>
          </mxGeometry>
        </mxCell>
        <mxCell id="7IWxB56YQUU6eFQI7mrQ-9" value="No" style="edgeLabel;html=1;align=center;verticalAlign=middle;resizable=0;points=[];" vertex="1" connectable="0" parent="7IWxB56YQUU6eFQI7mrQ-8">
          <mxGeometry x="-0.0065" y="2" relative="1" as="geometry">
            <mxPoint as="offset" />
          </mxGeometry>
        </mxCell>
        <mxCell id="7IWxB56YQUU6eFQI7mrQ-10" value="Determine additional instructions intent" style="rounded=1;whiteSpace=wrap;html=1;" vertex="1" parent="1">
          <mxGeometry x="190" y="330" width="120" height="40" as="geometry" />
        </mxCell>
        <mxCell id="7IWxB56YQUU6eFQI7mrQ-11" value="Determine if it is a pure style modification as opposed to some form of simple content generation" style="rounded=1;whiteSpace=wrap;html=1;" vertex="1" parent="1">
          <mxGeometry x="190" y="390" width="120" height="100" as="geometry" />
        </mxCell>
        <mxCell id="7IWxB56YQUU6eFQI7mrQ-12" value="Was a file uploaded?" style="strokeWidth=2;html=1;shape=mxgraph.flowchart.decision;whiteSpace=wrap;" vertex="1" parent="1">
          <mxGeometry x="440" y="490" width="140" height="130" as="geometry" />
        </mxCell>
        <mxCell id="7IWxB56YQUU6eFQI7mrQ-13" value="" style="edgeStyle=segmentEdgeStyle;endArrow=classic;html=1;curved=0;rounded=0;endSize=8;startSize=8;exitX=0;exitY=0.5;exitDx=0;exitDy=0;exitPerimeter=0;entryX=0.5;entryY=0;entryDx=0;entryDy=0;" edge="1" parent="1" source="7IWxB56YQUU6eFQI7mrQ-12">
          <mxGeometry width="50" height="50" relative="1" as="geometry">
            <mxPoint x="440" y="560" as="sourcePoint" />
            <mxPoint x="250" y="600" as="targetPoint" />
            <Array as="points" />
          </mxGeometry>
        </mxCell>
        <mxCell id="7IWxB56YQUU6eFQI7mrQ-14" value="Yes" style="edgeLabel;html=1;align=center;verticalAlign=middle;resizable=0;points=[];" vertex="1" connectable="0" parent="7IWxB56YQUU6eFQI7mrQ-13">
          <mxGeometry x="-0.2444" y="-1" relative="1" as="geometry">
            <mxPoint as="offset" />
          </mxGeometry>
        </mxCell>
        <mxCell id="7IWxB56YQUU6eFQI7mrQ-15" value="" style="edgeStyle=segmentEdgeStyle;endArrow=classic;html=1;curved=0;rounded=0;endSize=8;startSize=8;exitX=1;exitY=0.5;exitDx=0;exitDy=0;exitPerimeter=0;entryX=0.5;entryY=0;entryDx=0;entryDy=0;" edge="1" parent="1" source="7IWxB56YQUU6eFQI7mrQ-12" target="7IWxB56YQUU6eFQI7mrQ-20">
          <mxGeometry width="50" height="50" relative="1" as="geometry">
            <mxPoint x="580" y="550.04" as="sourcePoint" />
            <mxPoint x="760" y="595.04" as="targetPoint" />
            <Array as="points">
              <mxPoint x="765" y="555" />
            </Array>
          </mxGeometry>
        </mxCell>
        <mxCell id="7IWxB56YQUU6eFQI7mrQ-16" value="No, it is a manual input" style="edgeLabel;html=1;align=center;verticalAlign=middle;resizable=0;points=[];" vertex="1" connectable="0" parent="7IWxB56YQUU6eFQI7mrQ-15">
          <mxGeometry x="-0.0065" y="2" relative="1" as="geometry">
            <mxPoint as="offset" />
          </mxGeometry>
        </mxCell>
        <mxCell id="7IWxB56YQUU6eFQI7mrQ-17" value="Parse Files with Docling or Azure Document Intelligence&amp;nbsp;" style="rounded=1;whiteSpace=wrap;html=1;" vertex="1" parent="1">
          <mxGeometry x="60" y="600" width="370" height="40" as="geometry" />
        </mxCell>
        <mxCell id="7IWxB56YQUU6eFQI7mrQ-18" value="Extract content into Markdown format from the parsed file" style="rounded=1;whiteSpace=wrap;html=1;" vertex="1" parent="1">
          <mxGeometry x="65" y="650" width="370" height="40" as="geometry" />
        </mxCell>
        <mxCell id="7IWxB56YQUU6eFQI7mrQ-20" value="Parse files for manual (.txt) input" style="rounded=1;whiteSpace=wrap;html=1;" vertex="1" parent="1">
          <mxGeometry x="580" y="600" width="370" height="40" as="geometry" />
        </mxCell>
        <mxCell id="7IWxB56YQUU6eFQI7mrQ-21" value="Extract content into Markdown format from the parsed file" style="rounded=1;whiteSpace=wrap;html=1;" vertex="1" parent="1">
          <mxGeometry x="580" y="650" width="370" height="40" as="geometry" />
        </mxCell>
        <mxCell id="7IWxB56YQUU6eFQI7mrQ-22" value="Conduct Revision" style="rounded=1;whiteSpace=wrap;html=1;" vertex="1" parent="1">
          <mxGeometry x="230" y="720" width="570" height="30" as="geometry" />
        </mxCell>
        <mxCell id="7IWxB56YQUU6eFQI7mrQ-23" value="Chunk Document Cohesively" style="rounded=1;whiteSpace=wrap;html=1;" vertex="1" parent="1">
          <mxGeometry x="325" y="770" width="370" height="40" as="geometry" />
        </mxCell>
        <mxCell id="7IWxB56YQUU6eFQI7mrQ-24" value="Apply Chunk Layout Revision (ASYNC)" style="rounded=1;whiteSpace=wrap;html=1;" vertex="1" parent="1">
          <mxGeometry x="325" y="830" width="370" height="40" as="geometry" />
        </mxCell>
        <mxCell id="7IWxB56YQUU6eFQI7mrQ-25" value="Reconstruct revised layout chunk into file" style="rounded=1;whiteSpace=wrap;html=1;" vertex="1" parent="1">
          <mxGeometry x="325" y="880" width="370" height="40" as="geometry" />
        </mxCell>
        <mxCell id="7IWxB56YQUU6eFQI7mrQ-26" value="Chunk Document Cohesively" style="rounded=1;whiteSpace=wrap;html=1;" vertex="1" parent="1">
          <mxGeometry x="325" y="930" width="370" height="40" as="geometry" />
        </mxCell>
        <mxCell id="7IWxB56YQUU6eFQI7mrQ-27" value="Classify each Chunk into text vs not text" style="rounded=1;whiteSpace=wrap;html=1;" vertex="1" parent="1">
          <mxGeometry x="325" y="990" width="370" height="40" as="geometry" />
        </mxCell>
        <mxCell id="7IWxB56YQUU6eFQI7mrQ-28" value="Conduct Revision with Parallelized Sequential Chain using Langchain Expression Language for efficiency" style="rounded=1;whiteSpace=wrap;html=1;" vertex="1" parent="1">
          <mxGeometry x="300" y="1050" width="420" height="40" as="geometry" />
        </mxCell>
        <mxCell id="7IWxB56YQUU6eFQI7mrQ-29" value="" style="rounded=1;whiteSpace=wrap;html=1;fillColor=#ffe6cc;strokeColor=#d79b00;" vertex="1" parent="1">
          <mxGeometry x="260" y="1090" width="510" height="570" as="geometry" />
        </mxCell>
        <mxCell id="7IWxB56YQUU6eFQI7mrQ-30" value="Prepare the list of chunks into a list of Langchain Document Objects that store the chunks in page content and store other useful metadata" style="rounded=1;whiteSpace=wrap;html=1;" vertex="1" parent="1">
          <mxGeometry x="325" y="1120" width="370" height="70" as="geometry" />
        </mxCell>
        <mxCell id="7IWxB56YQUU6eFQI7mrQ-31" value="&lt;div&gt;&lt;span style=&quot;background-color: initial;&quot;&gt;Build Parallelized Sequential Chain&lt;/span&gt;&lt;br&gt;&lt;/div&gt;" style="rounded=1;whiteSpace=wrap;html=1;" vertex="1" parent="1">
          <mxGeometry x="325" y="1200" width="370" height="40" as="geometry" />
        </mxCell>
        <mxCell id="7IWxB56YQUU6eFQI7mrQ-32" value="&lt;div&gt;Prepare JSON Parsers for Structured Output driven Revision&lt;/div&gt;" style="rounded=1;whiteSpace=wrap;html=1;" vertex="1" parent="1">
          <mxGeometry x="325" y="1240" width="370" height="20" as="geometry" />
        </mxCell>
        <mxCell id="7IWxB56YQUU6eFQI7mrQ-33" value="Generate the revision prompts for the 4 base guidelines and the 5th revision prompt for the additional user instructions" style="rounded=1;whiteSpace=wrap;html=1;" vertex="1" parent="1">
          <mxGeometry x="325" y="1260" width="370" height="30" as="geometry" />
        </mxCell>
        <mxCell id="7IWxB56YQUU6eFQI7mrQ-34" value="Generate the transfer document prompt to transfer the revised chunks throughout the chain from one revision step to another" style="rounded=1;whiteSpace=wrap;html=1;" vertex="1" parent="1">
          <mxGeometry x="325" y="1290" width="370" height="40" as="geometry" />
        </mxCell>
        <mxCell id="7IWxB56YQUU6eFQI7mrQ-35" value="Generate the output prompt for each revision stage in the sequential chain to support structured output expected by the json parser" style="rounded=1;whiteSpace=wrap;html=1;" vertex="1" parent="1">
          <mxGeometry x="325" y="1330" width="370" height="40" as="geometry" />
        </mxCell>
        <mxCell id="7IWxB56YQUU6eFQI7mrQ-36" value="Build the sequential revision chain using Langchain Expression Language (LCEL)" style="rounded=1;whiteSpace=wrap;html=1;" vertex="1" parent="1">
          <mxGeometry x="325" y="1370" width="370" height="40" as="geometry" />
        </mxCell>
        <mxCell id="7IWxB56YQUU6eFQI7mrQ-37" value="Build the runnable&amp;nbsp;" style="rounded=1;whiteSpace=wrap;html=1;" vertex="1" parent="1">
          <mxGeometry x="325" y="1410" width="370" height="40" as="geometry" />
        </mxCell>
        <mxCell id="7IWxB56YQUU6eFQI7mrQ-38" value="Parallelize the sequential chain and pipe it with the runnable&amp;nbsp;" style="rounded=1;whiteSpace=wrap;html=1;" vertex="1" parent="1">
          <mxGeometry x="325" y="1450" width="370" height="40" as="geometry" />
        </mxCell>
        <mxCell id="7IWxB56YQUU6eFQI7mrQ-39" value="Map the async processing across Langchain Documents" style="rounded=1;whiteSpace=wrap;html=1;" vertex="1" parent="1">
          <mxGeometry x="325" y="1490" width="370" height="40" as="geometry" />
        </mxCell>
        <mxCell id="7IWxB56YQUU6eFQI7mrQ-40" value="Apply Parallelized Sequential Revision LCEL Chain to Document Chunks&amp;nbsp;" style="rounded=1;whiteSpace=wrap;html=1;" vertex="1" parent="1">
          <mxGeometry x="325" y="1550" width="370" height="40" as="geometry" />
        </mxCell>
        <mxCell id="7IWxB56YQUU6eFQI7mrQ-41" value="Gather Revised Chunks" style="rounded=1;whiteSpace=wrap;html=1;" vertex="1" parent="1">
          <mxGeometry x="325" y="1600" width="370" height="40" as="geometry" />
        </mxCell>
        <mxCell id="7IWxB56YQUU6eFQI7mrQ-42" value="Reconstruct revised chunks into one unique markdown output" style="rounded=1;whiteSpace=wrap;html=1;" vertex="1" parent="1">
          <mxGeometry x="325" y="1666" width="370" height="40" as="geometry" />
        </mxCell>
        <mxCell id="7IWxB56YQUU6eFQI7mrQ-43" value="Capture Explanation of the modification for future audits or as an option to provide the user (in second release)" style="rounded=1;whiteSpace=wrap;html=1;" vertex="1" parent="1">
          <mxGeometry x="325" y="1720" width="370" height="40" as="geometry" />
        </mxCell>
        <mxCell id="7IWxB56YQUU6eFQI7mrQ-44" value="Save to Blob" style="rounded=1;whiteSpace=wrap;html=1;" vertex="1" parent="1">
          <mxGeometry x="325" y="1840" width="365" height="20" as="geometry" />
        </mxCell>
        <mxCell id="7IWxB56YQUU6eFQI7mrQ-45" value="Render to docx" style="rounded=1;whiteSpace=wrap;html=1;" vertex="1" parent="1">
          <mxGeometry x="325" y="1790" width="365" height="40" as="geometry" />
        </mxCell>
        <mxCell id="7IWxB56YQUU6eFQI7mrQ-46" value="Allows the" style="rounded=1;whiteSpace=wrap;html=1;" vertex="1" parent="1">
          <mxGeometry x="325" y="1880" width="365" height="20" as="geometry" />
        </mxCell>
        <mxCell id="7IWxB56YQUU6eFQI7mrQ-47" value="" style="ellipse;html=1;shape=endState;fillColor=#000000;strokeColor=#ff0000;" vertex="1" parent="1">
          <mxGeometry x="470" y="1970" width="70" height="70" as="geometry" />
        </mxCell>
        <mxCell id="7IWxB56YQUU6eFQI7mrQ-49" value="" style="edgeStyle=segmentEdgeStyle;endArrow=classic;html=1;curved=0;rounded=0;endSize=8;startSize=8;entryX=0.5;entryY=0;entryDx=0;entryDy=0;exitX=0.5;exitY=1;exitDx=0;exitDy=0;" edge="1" parent="1" source="7IWxB56YQUU6eFQI7mrQ-46" target="7IWxB56YQUU6eFQI7mrQ-47">
          <mxGeometry width="50" height="50" relative="1" as="geometry">
            <mxPoint x="470" y="1960" as="sourcePoint" />
            <mxPoint x="520" y="1910" as="targetPoint" />
          </mxGeometry>
        </mxCell>
        <mxCell id="7IWxB56YQUU6eFQI7mrQ-50" value="" style="edgeStyle=segmentEdgeStyle;endArrow=classic;html=1;curved=0;rounded=0;endSize=8;startSize=8;exitX=0.5;exitY=1;exitDx=0;exitDy=0;" edge="1" parent="1" source="7IWxB56YQUU6eFQI7mrQ-44" target="7IWxB56YQUU6eFQI7mrQ-46">
          <mxGeometry width="50" height="50" relative="1" as="geometry">
            <mxPoint x="580" y="1800" as="sourcePoint" />
            <mxPoint x="630" y="1750" as="targetPoint" />
          </mxGeometry>
        </mxCell>
        <mxCell id="7IWxB56YQUU6eFQI7mrQ-51" value="" style="edgeStyle=segmentEdgeStyle;endArrow=classic;html=1;curved=0;rounded=0;endSize=8;startSize=8;exitX=0.5;exitY=1;exitDx=0;exitDy=0;entryX=0.5;entryY=0;entryDx=0;entryDy=0;" edge="1" parent="1" source="7IWxB56YQUU6eFQI7mrQ-45" target="7IWxB56YQUU6eFQI7mrQ-44">
          <mxGeometry width="50" height="50" relative="1" as="geometry">
            <mxPoint x="580" y="1800" as="sourcePoint" />
            <mxPoint x="630" y="1750" as="targetPoint" />
          </mxGeometry>
        </mxCell>
        <mxCell id="7IWxB56YQUU6eFQI7mrQ-52" value="" style="edgeStyle=segmentEdgeStyle;endArrow=classic;html=1;curved=0;rounded=0;endSize=8;startSize=8;exitX=0.5;exitY=1;exitDx=0;exitDy=0;entryX=0.5;entryY=0;entryDx=0;entryDy=0;" edge="1" parent="1" source="7IWxB56YQUU6eFQI7mrQ-43" target="7IWxB56YQUU6eFQI7mrQ-45">
          <mxGeometry width="50" height="50" relative="1" as="geometry">
            <mxPoint x="580" y="1800" as="sourcePoint" />
            <mxPoint x="630" y="1750" as="targetPoint" />
          </mxGeometry>
        </mxCell>
        <mxCell id="7IWxB56YQUU6eFQI7mrQ-53" value="" style="edgeStyle=segmentEdgeStyle;endArrow=classic;html=1;curved=0;rounded=0;endSize=8;startSize=8;exitX=0.5;exitY=1;exitDx=0;exitDy=0;entryX=0.5;entryY=0;entryDx=0;entryDy=0;" edge="1" parent="1" source="7IWxB56YQUU6eFQI7mrQ-42" target="7IWxB56YQUU6eFQI7mrQ-43">
          <mxGeometry width="50" height="50" relative="1" as="geometry">
            <mxPoint x="490" y="1716" as="sourcePoint" />
            <mxPoint x="610" y="1590" as="targetPoint" />
          </mxGeometry>
        </mxCell>
        <mxCell id="7IWxB56YQUU6eFQI7mrQ-54" value="" style="edgeStyle=segmentEdgeStyle;endArrow=classic;html=1;curved=0;rounded=0;endSize=8;startSize=8;exitX=0.5;exitY=1;exitDx=0;exitDy=0;" edge="1" parent="1" source="7IWxB56YQUU6eFQI7mrQ-41" target="7IWxB56YQUU6eFQI7mrQ-42">
          <mxGeometry width="50" height="50" relative="1" as="geometry">
            <mxPoint x="580" y="1630" as="sourcePoint" />
            <mxPoint x="630" y="1580" as="targetPoint" />
          </mxGeometry>
        </mxCell>
        <mxCell id="7IWxB56YQUU6eFQI7mrQ-55" value="" style="edgeStyle=segmentEdgeStyle;endArrow=classic;html=1;curved=0;rounded=0;endSize=8;startSize=8;exitX=0.5;exitY=1;exitDx=0;exitDy=0;entryX=0.5;entryY=0;entryDx=0;entryDy=0;" edge="1" parent="1" source="7IWxB56YQUU6eFQI7mrQ-40" target="7IWxB56YQUU6eFQI7mrQ-41">
          <mxGeometry width="50" height="50" relative="1" as="geometry">
            <mxPoint x="580" y="1450" as="sourcePoint" />
            <mxPoint x="630" y="1400" as="targetPoint" />
          </mxGeometry>
        </mxCell>
        <mxCell id="7IWxB56YQUU6eFQI7mrQ-56" value="" style="edgeStyle=segmentEdgeStyle;endArrow=classic;html=1;curved=0;rounded=0;endSize=8;startSize=8;exitX=0.5;exitY=1;exitDx=0;exitDy=0;entryX=0.5;entryY=0;entryDx=0;entryDy=0;" edge="1" parent="1" source="7IWxB56YQUU6eFQI7mrQ-39" target="7IWxB56YQUU6eFQI7mrQ-40">
          <mxGeometry width="50" height="50" relative="1" as="geometry">
            <mxPoint x="580" y="1450" as="sourcePoint" />
            <mxPoint x="630" y="1400" as="targetPoint" />
          </mxGeometry>
        </mxCell>
        <mxCell id="7IWxB56YQUU6eFQI7mrQ-57" value="" style="edgeStyle=segmentEdgeStyle;endArrow=classic;html=1;curved=0;rounded=0;endSize=8;startSize=8;exitX=0.5;exitY=1;exitDx=0;exitDy=0;entryX=0.5;entryY=0;entryDx=0;entryDy=0;" edge="1" parent="1" source="7IWxB56YQUU6eFQI7mrQ-30" target="7IWxB56YQUU6eFQI7mrQ-31">
          <mxGeometry width="50" height="50" relative="1" as="geometry">
            <mxPoint x="580" y="1280" as="sourcePoint" />
            <mxPoint x="630" y="1230" as="targetPoint" />
          </mxGeometry>
        </mxCell>
        <mxCell id="7IWxB56YQUU6eFQI7mrQ-59" value="" style="edgeStyle=segmentEdgeStyle;endArrow=classic;html=1;curved=0;rounded=0;endSize=8;startSize=8;exitX=0.5;exitY=0;exitDx=0;exitDy=0;entryX=0.5;entryY=0;entryDx=0;entryDy=0;" edge="1" parent="1" source="7IWxB56YQUU6eFQI7mrQ-29" target="7IWxB56YQUU6eFQI7mrQ-30">
          <mxGeometry width="50" height="50" relative="1" as="geometry">
            <mxPoint x="580" y="1110" as="sourcePoint" />
            <mxPoint x="630" y="1060" as="targetPoint" />
          </mxGeometry>
        </mxCell>
        <mxCell id="7IWxB56YQUU6eFQI7mrQ-60" value="" style="edgeStyle=segmentEdgeStyle;endArrow=classic;html=1;curved=0;rounded=0;endSize=8;startSize=8;exitX=0.5;exitY=1;exitDx=0;exitDy=0;" edge="1" parent="1" source="7IWxB56YQUU6eFQI7mrQ-27" target="7IWxB56YQUU6eFQI7mrQ-28">
          <mxGeometry width="50" height="50" relative="1" as="geometry">
            <mxPoint x="580" y="930" as="sourcePoint" />
            <mxPoint x="630" y="880" as="targetPoint" />
          </mxGeometry>
        </mxCell>
        <mxCell id="7IWxB56YQUU6eFQI7mrQ-61" value="" style="edgeStyle=segmentEdgeStyle;endArrow=classic;html=1;curved=0;rounded=0;endSize=8;startSize=8;exitX=0.5;exitY=1;exitDx=0;exitDy=0;entryX=0.5;entryY=0;entryDx=0;entryDy=0;" edge="1" parent="1" source="7IWxB56YQUU6eFQI7mrQ-26" target="7IWxB56YQUU6eFQI7mrQ-27">
          <mxGeometry width="50" height="50" relative="1" as="geometry">
            <mxPoint x="580" y="930" as="sourcePoint" />
            <mxPoint x="630" y="880" as="targetPoint" />
          </mxGeometry>
        </mxCell>
        <mxCell id="7IWxB56YQUU6eFQI7mrQ-62" value="" style="edgeStyle=segmentEdgeStyle;endArrow=classic;html=1;curved=0;rounded=0;endSize=8;startSize=8;exitX=0.5;exitY=1;exitDx=0;exitDy=0;entryX=0.5;entryY=0;entryDx=0;entryDy=0;" edge="1" parent="1" source="7IWxB56YQUU6eFQI7mrQ-25" target="7IWxB56YQUU6eFQI7mrQ-26">
          <mxGeometry width="50" height="50" relative="1" as="geometry">
            <mxPoint x="480" y="920" as="sourcePoint" />
            <mxPoint x="600" y="880" as="targetPoint" />
          </mxGeometry>
        </mxCell>
        <mxCell id="7IWxB56YQUU6eFQI7mrQ-64" value="" style="edgeStyle=segmentEdgeStyle;endArrow=classic;html=1;curved=0;rounded=0;endSize=8;startSize=8;exitX=0.5;exitY=1;exitDx=0;exitDy=0;entryX=0.5;entryY=0;entryDx=0;entryDy=0;" edge="1" parent="1" source="7IWxB56YQUU6eFQI7mrQ-24" target="7IWxB56YQUU6eFQI7mrQ-25">
          <mxGeometry width="50" height="50" relative="1" as="geometry">
            <mxPoint x="580" y="930" as="sourcePoint" />
            <mxPoint x="630" y="880" as="targetPoint" />
            <Array as="points">
              <mxPoint x="510" y="880" />
              <mxPoint x="510" y="880" />
            </Array>
          </mxGeometry>
        </mxCell>
        <mxCell id="7IWxB56YQUU6eFQI7mrQ-65" value="" style="edgeStyle=segmentEdgeStyle;endArrow=classic;html=1;curved=0;rounded=0;endSize=8;startSize=8;exitX=0.5;exitY=1;exitDx=0;exitDy=0;entryX=0.5;entryY=0;entryDx=0;entryDy=0;" edge="1" parent="1" source="7IWxB56YQUU6eFQI7mrQ-23" target="7IWxB56YQUU6eFQI7mrQ-24">
          <mxGeometry width="50" height="50" relative="1" as="geometry">
            <mxPoint x="630" y="930" as="sourcePoint" />
            <mxPoint x="680" y="880" as="targetPoint" />
          </mxGeometry>
        </mxCell>
        <mxCell id="7IWxB56YQUU6eFQI7mrQ-66" value="" style="edgeStyle=segmentEdgeStyle;endArrow=classic;html=1;curved=0;rounded=0;endSize=8;startSize=8;exitX=0.5;exitY=1;exitDx=0;exitDy=0;entryX=0.5;entryY=0;entryDx=0;entryDy=0;entryPerimeter=0;" edge="1" parent="1" source="7IWxB56YQUU6eFQI7mrQ-11" target="7IWxB56YQUU6eFQI7mrQ-12">
          <mxGeometry width="50" height="50" relative="1" as="geometry">
            <mxPoint x="180" y="520" as="sourcePoint" />
            <mxPoint x="230" y="470" as="targetPoint" />
          </mxGeometry>
        </mxCell>
        <mxCell id="7IWxB56YQUU6eFQI7mrQ-67" value="" style="edgeStyle=segmentEdgeStyle;endArrow=classic;html=1;curved=0;rounded=0;endSize=8;startSize=8;exitX=0.5;exitY=1;exitDx=0;exitDy=0;entryX=0.5;entryY=0;entryDx=0;entryDy=0;" edge="1" parent="1" source="7IWxB56YQUU6eFQI7mrQ-10" target="7IWxB56YQUU6eFQI7mrQ-11">
          <mxGeometry width="50" height="50" relative="1" as="geometry">
            <mxPoint x="640" y="460" as="sourcePoint" />
            <mxPoint x="690" y="410" as="targetPoint" />
          </mxGeometry>
        </mxCell>
        <mxCell id="7IWxB56YQUU6eFQI7mrQ-68" value="" style="edgeStyle=segmentEdgeStyle;endArrow=classic;html=1;curved=0;rounded=0;endSize=8;startSize=8;exitX=0.5;exitY=1;exitDx=0;exitDy=0;entryX=0.5;entryY=0;entryDx=0;entryDy=0;" edge="1" parent="1" source="7IWxB56YQUU6eFQI7mrQ-18" target="7IWxB56YQUU6eFQI7mrQ-22">
          <mxGeometry width="50" height="50" relative="1" as="geometry">
            <mxPoint x="440" y="700" as="sourcePoint" />
            <mxPoint x="490" y="650" as="targetPoint" />
          </mxGeometry>
        </mxCell>
        <mxCell id="7IWxB56YQUU6eFQI7mrQ-69" value="" style="edgeStyle=segmentEdgeStyle;endArrow=classic;html=1;curved=0;rounded=0;endSize=8;startSize=8;exitX=0.5;exitY=1;exitDx=0;exitDy=0;entryX=0.502;entryY=-0.24;entryDx=0;entryDy=0;entryPerimeter=0;" edge="1" parent="1" source="7IWxB56YQUU6eFQI7mrQ-21" target="7IWxB56YQUU6eFQI7mrQ-22">
          <mxGeometry width="50" height="50" relative="1" as="geometry">
            <mxPoint x="730" y="700" as="sourcePoint" />
            <mxPoint x="1000" y="730" as="targetPoint" />
          </mxGeometry>
        </mxCell>
        <mxCell id="7IWxB56YQUU6eFQI7mrQ-70" value="" style="edgeStyle=segmentEdgeStyle;endArrow=classic;html=1;curved=0;rounded=0;endSize=8;startSize=8;entryX=0.5;entryY=0;entryDx=0;entryDy=0;exitX=0.5;exitY=1;exitDx=0;exitDy=0;" edge="1" parent="1" source="7IWxB56YQUU6eFQI7mrQ-22" target="7IWxB56YQUU6eFQI7mrQ-23">
          <mxGeometry width="50" height="50" relative="1" as="geometry">
            <mxPoint x="450" y="740" as="sourcePoint" />
            <mxPoint x="500" y="690" as="targetPoint" />
          </mxGeometry>
        </mxCell>
        <mxCell id="7IWxB56YQUU6eFQI7mrQ-71" value="" style="edgeStyle=segmentEdgeStyle;endArrow=classic;html=1;curved=0;rounded=0;endSize=8;startSize=8;entryX=0.5;entryY=0;entryDx=0;entryDy=0;entryPerimeter=0;" edge="1" parent="1" target="7IWxB56YQUU6eFQI7mrQ-5">
          <mxGeometry width="50" height="50" relative="1" as="geometry">
            <mxPoint x="518" y="200" as="sourcePoint" />
            <mxPoint x="500" y="140" as="targetPoint" />
          </mxGeometry>
        </mxCell>
        <mxCell id="7IWxB56YQUU6eFQI7mrQ-72" value="" style="edgeStyle=segmentEdgeStyle;endArrow=classic;html=1;curved=0;rounded=0;endSize=8;startSize=8;exitX=0.5;exitY=1;exitDx=0;exitDy=0;exitPerimeter=0;entryX=0.5;entryY=0;entryDx=0;entryDy=0;" edge="1" parent="1" source="7IWxB56YQUU6eFQI7mrQ-3" target="7IWxB56YQUU6eFQI7mrQ-4">
          <mxGeometry width="50" height="50" relative="1" as="geometry">
            <mxPoint x="510" y="240" as="sourcePoint" />
            <mxPoint x="560" y="190" as="targetPoint" />
          </mxGeometry>
        </mxCell>
        <mxCell id="7IWxB56YQUU6eFQI7mrQ-73" value="&lt;h1 style=&quot;margin-top: 0px;&quot;&gt;&lt;span style=&quot;font-size: 12px;&quot;&gt;OUTPUT: Generates only one docx that tried to regenerate the exact same input but revised&lt;/span&gt;&lt;/h1&gt;" style="text;html=1;whiteSpace=wrap;overflow=hidden;rounded=0;" vertex="1" parent="1">
          <mxGeometry x="557" y="1970" width="270" height="230" as="geometry" />
        </mxCell>
        <mxCell id="7IWxB56YQUU6eFQI7mrQ-74" value="&lt;h1 style=&quot;margin-top: 0px;&quot;&gt;&lt;span style=&quot;font-size: 12px;&quot;&gt;INPUT : Manual .txt Input or Single Uploaded File by user with optional additional user instructions&amp;nbsp;&lt;/span&gt;&lt;/h1&gt;&lt;div&gt;&lt;span style=&quot;font-size: 12px;&quot;&gt;&lt;b&gt;Format Supported: .docx, .txt, .pdf, pptx for next release&lt;/b&gt;&lt;/span&gt;&lt;/div&gt;&lt;div&gt;&lt;span style=&quot;font-size: 12px;&quot;&gt;&lt;br&gt;&lt;/span&gt;&lt;/div&gt;" style="text;html=1;whiteSpace=wrap;overflow=hidden;rounded=0;" vertex="1" parent="1">
          <mxGeometry x="570" y="50" width="460" height="230" as="geometry" />
        </mxCell>
        <mxCell id="7IWxB56YQUU6eFQI7mrQ-75" value="&lt;ul&gt;&lt;li&gt;&lt;b&gt;Revision: Following the 4 static guidelines provided&lt;/b&gt;&lt;/li&gt;&lt;li&gt;&lt;b&gt;If there is additional user instructions, then a fifth revision step dynamically adjusted to the user instructions is applied&lt;/b&gt;&lt;/li&gt;&lt;/ul&gt;" style="text;strokeColor=none;fillColor=none;html=1;whiteSpace=wrap;verticalAlign=middle;overflow=hidden;" vertex="1" parent="1">
          <mxGeometry x="705" y="1040" width="370" height="120" as="geometry" />
        </mxCell>
        <mxCell id="7IWxB56YQUU6eFQI7mrQ-76" value="" style="edgeStyle=segmentEdgeStyle;endArrow=classic;html=1;curved=0;rounded=0;endSize=8;startSize=8;exitX=0.5;exitY=1;exitDx=0;exitDy=0;entryX=0.5;entryY=0;entryDx=0;entryDy=0;" edge="1" parent="1" source="7IWxB56YQUU6eFQI7mrQ-17" target="7IWxB56YQUU6eFQI7mrQ-18">
          <mxGeometry width="50" height="50" relative="1" as="geometry">
            <mxPoint y="780" as="sourcePoint" />
            <mxPoint x="50" y="730" as="targetPoint" />
          </mxGeometry>
        </mxCell>
        <mxCell id="7IWxB56YQUU6eFQI7mrQ-77" value="" style="edgeStyle=segmentEdgeStyle;endArrow=classic;html=1;curved=0;rounded=0;endSize=8;startSize=8;exitX=0.486;exitY=1.036;exitDx=0;exitDy=0;exitPerimeter=0;entryX=0.5;entryY=0;entryDx=0;entryDy=0;" edge="1" parent="1" source="7IWxB56YQUU6eFQI7mrQ-20" target="7IWxB56YQUU6eFQI7mrQ-21">
          <mxGeometry width="50" height="50" relative="1" as="geometry">
            <mxPoint x="1050" y="760" as="sourcePoint" />
            <mxPoint x="1100" y="710" as="targetPoint" />
          </mxGeometry>
        </mxCell>
      </root>
    </mxGraphModel>
  </diagram>
</mxfile>
